# xmcd CD database file
#
# Track frame offsets:
#	150
#	6405
#	18340
#	32862
#	50988
#	60556
#	74146
#	89140
#	103630
#	116844
#	133246
#	143200
#	155372
#	168380
#	184837
#	198801
#
# Disc length: 2876 seconds
#
# Revision: 0
# Processed by: cddbd v1.5.2PL0 Copyright (c) Steve Scherf et al.
# Submitted via: CDex 1.70beta2
#
DISCID=f30b3a10
DTITLE=Jizni Eskadrona - Zpěvník jižní eskadrony
DYEAR=1900
DGENRE=Country
TTITLE0=Marnivá sestřenice
TTITLE1=Posázavskej Dan
TTITLE2=Jožin z Bažin
TTITLE3=Pytlácká
TTITLE4=Kvetly máky
TTITLE5=Ester
TTITLE6=Mám malý stan
TTITLE7=Okolo Hradce
TTITLE8=Líbám tě dnes
TTITLE9=Dájo nevolej
TTITLE10=Armáda
TTITLE11=Panenka
TTITLE12=Šejdy lejdy
TTITLE13=Knedlíky
TTITLE14=Hej, šup, námořníci
TTITLE15=Vlajka
EXTD=
EXTT0=
EXTT1=
EXTT2=
EXTT3=
EXTT4=
EXTT5=
EXTT6=
EXTT7=
EXTT8=
EXTT9=
EXTT10=
EXTT11=
EXTT12=
EXTT13=
EXTT14=
EXTT15=
PLAYORDER=
